<svg width="25" height="25" viewBox="0 0 25 25" fill="none" xmlns="http://www.w3.org/2000/svg">
<g clip-path="url(#clip0_56415_66187)">
<path d="M21.7806 18.674C21.4327 19.4775 21.021 20.2172 20.544 20.8972C19.8938 21.8243 19.3614 22.466 18.9511 22.8224C18.315 23.4073 17.6336 23.7068 16.9039 23.7239C16.38 23.7239 15.7482 23.5748 15.0128 23.2724C14.275 22.9714 13.5969 22.8224 12.9769 22.8224C12.3267 22.8224 11.6293 22.9714 10.8834 23.2724C10.1364 23.5748 9.53456 23.7324 9.07444 23.748C8.37466 23.7778 7.67716 23.4697 6.98093 22.8224C6.53656 22.4348 5.98075 21.7704 5.3149 20.8291C4.60051 19.8239 4.01317 18.6584 3.55304 17.3295C3.06026 15.8942 2.81323 14.5043 2.81323 13.1587C2.81323 11.6173 3.1463 10.2879 3.81342 9.17385C4.33772 8.279 5.03522 7.57312 5.9082 7.05493C6.78118 6.53674 7.72443 6.27267 8.74024 6.25578C9.29605 6.25578 10.0249 6.4277 10.9307 6.76559C11.8339 7.10462 12.4139 7.27655 12.6681 7.27655C12.8582 7.27655 13.5025 7.07552 14.5947 6.67473C15.6275 6.30305 16.4992 6.14916 17.2133 6.20978C19.1484 6.36595 20.6022 7.12876 21.569 8.50303C19.8384 9.55163 18.9823 11.0203 18.9993 12.9044C19.015 14.372 19.5474 15.5932 20.5937 16.5629C21.0679 17.0129 21.5974 17.3607 22.1866 17.6078C22.0588 17.9783 21.9239 18.3332 21.7806 18.674ZM17.3425 1.21013C17.3425 2.36039 16.9223 3.43439 16.0847 4.42847C15.0738 5.61023 13.8512 6.29311 12.5253 6.18536C12.5084 6.04736 12.4986 5.90213 12.4986 5.74951C12.4986 4.64526 12.9793 3.46349 13.833 2.49724C14.2592 2.00801 14.8013 1.60122 15.4586 1.27671C16.1145 0.957053 16.7349 0.780273 17.3184 0.75C17.3354 0.903772 17.3425 1.05755 17.3425 1.21012V1.21013Z" fill="black"/>
</g>
<defs>
<clipPath id="clip0_56415_66187">
<rect width="24" height="24" fill="white" transform="translate(0.5 0.25)"/>
</clipPath>
</defs>
</svg>
