<svg width="24" height="25" viewBox="0 0 24 25" fill="none" xmlns="http://www.w3.org/2000/svg">
<path fill-rule="evenodd" clip-rule="evenodd" d="M23.52 12.5229C23.52 11.672 23.4436 10.8538 23.3018 10.0684H12V14.7102H18.4582C18.18 16.2102 17.3345 17.4811 16.0636 18.332V21.3429H19.9418C22.2109 19.2538 23.52 16.1774 23.52 12.5229Z" fill="#4285F4"/>
<path fill-rule="evenodd" clip-rule="evenodd" d="M12 24.2503C15.24 24.2503 17.9564 23.1757 19.9418 21.343L16.0636 18.3321C14.9891 19.0521 13.6145 19.4775 12 19.4775C8.87455 19.4775 6.22909 17.3666 5.28546 14.5303H1.27637V17.6394C3.25091 21.5612 7.30909 24.2503 12 24.2503Z" fill="#34A853"/>
<path fill-rule="evenodd" clip-rule="evenodd" d="M5.28545 14.5304C5.04545 13.8104 4.90909 13.0413 4.90909 12.2504C4.90909 11.4595 5.04545 10.6904 5.28545 9.97042V6.86133H1.27636C0.463636 8.48133 0 10.3141 0 12.2504C0 14.1868 0.463636 16.0195 1.27636 17.6395L5.28545 14.5304Z" fill="#FBBC05"/>
<path fill-rule="evenodd" clip-rule="evenodd" d="M12 5.02273C13.7618 5.02273 15.3436 5.62818 16.5873 6.81727L20.0291 3.37545C17.9509 1.43909 15.2345 0.25 12 0.25C7.30909 0.25 3.25091 2.93909 1.27637 6.86091L5.28546 9.97C6.22909 7.13364 8.87455 5.02273 12 5.02273Z" fill="#EA4335"/>
</svg>
