<svg width="24" height="24" viewBox="0 0 24 24" fill="none" xmlns="http://www.w3.org/2000/svg">
<path d="M22.0078 6.25V11.35C22.0078 12.62 21.5878 13.69 20.8378 14.43C20.0978 15.18 19.0278 15.6 17.7578 15.6V17.41C17.7578 18.09 16.9978 18.5 16.4378 18.12L15.4678 17.48C15.5578 17.17 15.5978 16.83 15.5978 16.47V12.4C15.5978 10.36 14.2378 9 12.1978 9H5.40781C5.26781 9 5.13781 9.01002 5.00781 9.02002V6.25C5.00781 3.7 6.70781 2 9.25781 2H17.7578C20.3078 2 22.0078 3.7 22.0078 6.25Z" stroke="#161617" stroke-width="2" stroke-miterlimit="10" stroke-linecap="round" stroke-linejoin="round"/>
<path d="M15.5978 12.4V16.47C15.5978 16.83 15.5578 17.17 15.4678 17.48C15.0978 18.95 13.8778 19.87 12.1978 19.87H9.47781L6.45781 21.88C6.00781 22.19 5.40781 21.86 5.40781 21.32V19.87C4.38781 19.87 3.53781 19.53 2.94781 18.94C2.34781 18.34 2.00781 17.49 2.00781 16.47V12.4C2.00781 10.5 3.18781 9.19002 5.00781 9.02002C5.13781 9.01002 5.26781 9 5.40781 9H12.1978C14.2378 9 15.5978 10.36 15.5978 12.4Z" stroke="#161617" stroke-width="2" stroke-miterlimit="10" stroke-linecap="round" stroke-linejoin="round"/>
</svg>
