<svg width="24" height="24" viewBox="0 0 24 24" fill="none" xmlns="http://www.w3.org/2000/svg">
<path d="M19.629 16.6081L19.6298 16.6092C19.6498 16.6333 19.6878 16.6794 19.7284 16.7287C19.7768 16.7875 19.8289 16.8508 19.8586 16.8866C19.9377 16.9821 19.9877 17.0983 20.0028 17.2214C20.0179 17.3445 19.9973 17.4694 19.9436 17.5811L19.9429 17.5827C19.8263 17.8265 19.5749 17.9986 19.2423 17.9986H4.76311C4.42437 17.9986 4.17199 17.8238 4.05731 17.5822L4.05593 17.5793C4.00247 17.4676 3.98214 17.3429 3.99733 17.22C4.01252 17.0971 4.0626 16.9811 4.14164 16.8858L4.14168 16.8858L4.14751 16.8787C4.21255 16.7987 4.27651 16.7216 4.3428 16.6417L4.37093 16.6078L4.37115 16.6075L4.40009 16.5726C4.90181 15.9671 5.41148 15.3521 5.75585 14.4022C6.0992 13.4551 6.25623 12.2477 6.25623 10.4383C6.25623 8.96593 6.55095 7.83765 7.08043 6.97724C7.60433 6.1259 8.40613 5.45813 9.5641 4.98143L9.6192 4.95874L9.67123 4.92967C9.78273 4.86737 9.88302 4.78688 9.96797 4.69155L10.1158 4.52561L10.1795 4.31266C10.483 3.29746 11.2595 2.75 12.0001 2.75C12.7408 2.75 13.5176 3.29738 13.8212 4.3138L13.8819 4.51706L14.0199 4.67818C14.1079 4.78092 14.2134 4.86719 14.3317 4.93295L14.383 4.9615L14.4373 4.98385C15.4343 5.39403 16.1397 5.92575 16.6508 6.59406L16.6514 6.59479C17.3451 7.50019 17.7445 8.76702 17.7445 10.4397C17.7445 12.2486 17.9018 13.4556 18.2453 14.4027C18.5892 15.351 19.0978 15.9659 19.5981 16.5708L19.629 16.6081Z" stroke="#B4B4B4" stroke-width="2"/>
<path d="M12.0002 22.25C12.4399 22.2496 12.8713 22.1066 13.2487 21.8361C13.6261 21.5657 13.9353 21.178 14.1436 20.714C14.1534 20.6918 14.1583 20.6669 14.1577 20.6417C14.1571 20.6166 14.1511 20.5921 14.1402 20.5705C14.1294 20.549 14.1141 20.5312 14.0958 20.5188C14.0775 20.5065 14.0569 20.5 14.0359 20.5H9.96516C9.94414 20.4999 9.92346 20.5063 9.90513 20.5187C9.88681 20.531 9.87146 20.5488 9.86058 20.5704C9.84971 20.5919 9.84367 20.6165 9.84307 20.6416C9.84246 20.6668 9.84731 20.6917 9.85714 20.714C10.0654 21.1779 10.3746 21.5656 10.7519 21.836C11.1292 22.1065 11.5606 22.2495 12.0002 22.25Z" fill="#B4B4B4"/>
</svg>
