<svg width="19" height="21" viewBox="0 0 19 21" fill="none" xmlns="http://www.w3.org/2000/svg">
<path d="M18.6213 14.4989C18.5435 14.4052 18.4671 14.3114 18.3921 14.2209C17.3609 12.9736 16.7369 12.2208 16.7369 8.68969C16.7369 6.86156 16.2996 5.36156 15.4376 4.23656C14.8019 3.40547 13.9427 2.775 12.8102 2.30906C12.7957 2.30096 12.7826 2.29032 12.7718 2.27766C12.3644 0.913594 11.2498 0 9.99257 0C8.73538 0 7.62116 0.913594 7.21382 2.27625C7.20295 2.28845 7.19012 2.29875 7.17585 2.30672C4.53304 3.39469 3.24866 5.48203 3.24866 8.68828C3.24866 12.2208 2.6257 12.9736 1.59351 14.2195C1.51851 14.31 1.4421 14.4019 1.36429 14.4975C1.16329 14.7399 1.03594 15.0348 0.997312 15.3473C0.958683 15.6598 1.01039 15.9769 1.14632 16.2609C1.43554 16.8703 2.05195 17.2486 2.75554 17.2486H17.2348C17.9351 17.2486 18.5473 16.8708 18.8374 16.2642C18.9739 15.9801 19.0261 15.6628 18.9878 15.3499C18.9495 15.037 18.8223 14.7417 18.6213 14.4989Z" fill="#B4B4B4"/>
<path d="M9.99259 21C10.67 20.9995 11.3345 20.8156 11.9159 20.4679C12.4972 20.1202 12.9736 19.6217 13.2945 19.0252C13.3096 18.9966 13.3171 18.9646 13.3161 18.9322C13.3152 18.8999 13.306 18.8684 13.2893 18.8407C13.2726 18.813 13.249 18.7901 13.2208 18.7742C13.1927 18.7583 13.1609 18.75 13.1285 18.75H6.85759C6.82521 18.7499 6.79336 18.7582 6.76512 18.774C6.73689 18.7899 6.71325 18.8128 6.69649 18.8405C6.67974 18.8682 6.67044 18.8997 6.66951 18.9321C6.66858 18.9645 6.67605 18.9965 6.69119 19.0252C7.01206 19.6216 7.48837 20.1201 8.0696 20.4678C8.65082 20.8155 9.31531 20.9994 9.99259 21Z" fill="#B4B4B4"/>
</svg>
