<svg width="20" height="24" viewBox="0 0 20 24" fill="none" xmlns="http://www.w3.org/2000/svg">
<path d="M8.08179 0.382313C7.646 0.382313 7.29298 0.735328 7.29298 1.17188V5.11819H6.01784V1.0935C6.01784 0.489281 5.52856 0 4.92504 0C4.32078 0 3.83154 0.489281 3.83154 1.0935V5.11814H2.55715V1.17188C2.55715 0.735328 2.20339 0.382313 1.76759 0.382313C1.33179 0.382313 0.978027 0.735375 0.978027 1.17188V6.21094H0.992699C1.11284 7.13086 2.04007 8.00686 3.40601 8.38477V22.1792C3.40601 23.0171 4.08645 23.6968 4.92504 23.6968C5.76293 23.6968 6.44187 23.0171 6.44187 22.1792V8.34816C7.62842 8.00977 8.73434 7.29272 8.85814 6.21094H8.87061V1.17188C8.87061 0.735375 8.51759 0.382313 8.08179 0.382313Z" fill="#595959"/>
<path d="M15.0281 0.751531C14.147 0.452703 12.8162 0.273969 12.8162 1.62603C12.8162 1.62603 12.8162 21.2945 12.8162 22.4092C12.8162 23.5225 13.4526 24.0001 14.2481 24.0001C15.0435 24.0001 15.6792 23.5225 15.6792 22.5674C15.6792 21.6138 15.6792 13.8824 15.6792 13.8824C15.6792 13.8824 17.3506 13.8824 18.0669 13.8824C18.7833 13.8824 19.022 13.0064 19.022 12.3692C19.022 12.3692 19.022 9.98005 19.022 7.99081C19.022 3.6695 16.8921 1.38584 15.0281 0.751531Z" fill="#595959"/>
</svg>
