<svg width="22" height="22" viewBox="0 0 22 22" fill="none" xmlns="http://www.w3.org/2000/svg">
<path fill-rule="evenodd" clip-rule="evenodd" d="M20.3269 6.1361L14.4023 1.23752C12.4066 -0.412508 9.59343 -0.412508 7.59773 1.23752L1.67307 6.1361C0.605649 7.01865 0 8.35676 0 9.75293V17.392C0 19.8726 1.90756 22 4.4 22H6.6C7.81503 22 8.8 21.0151 8.8 19.8V16.2226C8.8 14.8283 9.84731 13.8146 11 13.8146C12.1527 13.8146 13.2 14.8283 13.2 16.2226V19.8C13.2 21.0151 14.1849 22 15.4 22H17.6C20.0925 22 22 19.8726 22 17.392V9.75293C22 8.35677 21.3943 7.01865 20.3269 6.1361Z" fill="#595959"/>
</svg>
