<svg width="24" height="23" viewBox="0 0 24 23" fill="none" xmlns="http://www.w3.org/2000/svg">
<path d="M5.84644 16.5692C5.84644 16.5692 7.86979 12.7999 11.2161 12.6545C12.4929 12.7403 13.7466 12.9834 14.9489 13.3784C15.6801 12.645 16.5955 12.1256 17.5873 11.8812C18.5792 11.6367 19.6063 11.6775 20.5479 11.9986C21.4895 12.3197 22.3065 12.9078 22.9027 13.6939C23.499 14.4799 23.8497 15.4311 23.9138 16.4356C23.9778 17.4402 23.7524 18.4564 23.2641 19.3646C22.7758 20.2729 22.0449 21.0355 21.1573 21.5627C20.2697 22.09 19.2624 22.36 18.2538 22.3411C17.2452 22.3221 16.2771 22.0149 15.4636 21.4557C11.8337 22.2829 4.79621 23.1942 0.584499 18.9825C-1.65154 16.7464 3.02908 7.68564 6.14262 4.5721L9.88369 0.831027C10.3496 0.367793 10.9665 0.0919215 11.6079 0.0600369C12.2493 0.0281523 12.8664 0.242673 13.3326 0.659568C14.7298 1.91193 16.3957 3.72263 15.8679 5.07745C15.1201 7.08113 11.2948 8.19563 9.83215 6.73302C8.62535 7.93982 7.40393 11.9639 7.22694 14.6833" fill="#595959"/>
</svg>
