<svg width="20" height="20" viewBox="0 0 20 20" fill="none" xmlns="http://www.w3.org/2000/svg">
<g id="calendar">
<path id="Vector" d="M15.8333 2.49967H14.1667V1.66634C14.1667 1.16634 13.8333 0.833008 13.3333 0.833008C12.8333 0.833008 12.5 1.16634 12.5 1.66634V2.49967H7.50001V1.66634C7.50001 1.16634 7.16667 0.833008 6.66667 0.833008C6.16667 0.833008 5.83334 1.16634 5.83334 1.66634V2.49967H4.16667C2.75001 2.49967 1.66667 3.58301 1.66667 4.99967V16.6663C1.66667 18.083 2.75001 19.1663 4.16667 19.1663H15.8333C17.25 19.1663 18.3333 18.083 18.3333 16.6663V4.99967C18.3333 3.58301 17.25 2.49967 15.8333 2.49967ZM4.16667 4.16634H5.83334V4.99967C5.83334 5.49967 6.16667 5.83301 6.66667 5.83301C7.16667 5.83301 7.50001 5.49967 7.50001 4.99967V4.16634H12.5V4.99967C12.5 5.49967 12.8333 5.83301 13.3333 5.83301C13.8333 5.83301 14.1667 5.49967 14.1667 4.99967V4.16634H15.8333C16.3333 4.16634 16.6667 4.49967 16.6667 4.99967V7.49967H3.33334V4.99967C3.33334 4.49967 3.66667 4.16634 4.16667 4.16634ZM15.8333 17.4997H4.16667C3.66667 17.4997 3.33334 17.1663 3.33334 16.6663V9.16634H16.6667V16.6663C16.6667 17.1663 16.3333 17.4997 15.8333 17.4997Z" fill="#BABABA"/>
</g>
</svg>
