<svg width="20" height="21" viewBox="0 0 20 21" fill="none" xmlns="http://www.w3.org/2000/svg">
<g clip-path="url(#clip0_56622_3991)">
<path d="M8.41667 4.83333C8.91667 4.75 9.5 4.66667 10 4.66667C14.5 4.66667 17.4167 9.16667 18.25 10.5C17.8333 11.25 17.3333 12 16.75 12.5833C16.4167 12.9167 16.5 13.5 16.8333 13.75C17 13.9167 17.1667 13.9167 17.3333 13.9167C17.5833 13.9167 17.8333 13.8333 18 13.5833C18.75 12.75 19.3333 11.75 19.9167 10.75C20.0833 10.5 20.0833 10.25 19.9167 10C19.75 9.83333 16.25 3 10 3C9.33334 3 8.66667 3.08333 8.08334 3.25C7.58334 3.33333 7.33334 3.75 7.41667 4.25C7.58334 4.66667 8 4.91667 8.41667 4.83333Z" fill="#BABABA"/>
<path d="M19.7499 19.0833L1.41659 0.75C1.08325 0.416667 0.583252 0.416667 0.249919 0.75C-0.0834147 1.08333 -0.0834147 1.58333 0.249919 1.91667L3.83325 5.5C2.33325 6.83333 1.08325 8.33333 0.0832519 10.0833C-0.0834147 10.3333 -0.0834147 10.5833 0.0832519 10.8333C0.249919 11.1667 3.74992 18 9.99992 18C11.7499 18 13.4166 17.5 14.8332 16.5L18.5832 20.25C18.7499 20.4167 18.9999 20.5 19.1666 20.5C19.3332 20.5 19.5833 20.4167 19.7499 20.25C20.0833 19.9167 20.0833 19.4167 19.7499 19.0833ZM8.33325 10.0833L10.4166 12.1667C10.2499 12.25 10.0833 12.25 9.91658 12.25C9.66658 12.25 9.49992 12.25 9.24992 12.1667C9.08325 12.0833 8.83325 12 8.66658 11.8333C8.49992 11.6667 8.41658 11.5 8.33325 11.25C8.24992 11 8.24992 10.75 8.24992 10.5C8.24992 10.3333 8.33325 10.1667 8.33325 10.0833ZM9.99992 16.3333C5.49992 16.3333 2.58325 11.8333 1.74992 10.5C2.58325 9 3.66659 7.75 4.99992 6.66667L7.08325 8.83333C6.99992 9 6.91658 9.08333 6.83325 9.25C6.66658 9.66667 6.58325 10.0833 6.58325 10.5833C6.58325 11 6.66658 11.5 6.83325 11.9167C6.99992 12.3333 7.24992 12.6667 7.58325 13C7.91659 13.3333 8.24992 13.5833 8.66658 13.75C9.08325 13.9167 9.49992 14 9.91658 14C9.91658 14 9.91658 14 9.99992 14C10.4166 14 10.9166 13.9167 11.3333 13.75C11.4999 13.6667 11.5833 13.5833 11.7499 13.5L13.6666 15.4167C12.4999 16 11.2499 16.3333 9.99992 16.3333Z" fill="#BABABA"/>
</g>
<defs>
<clipPath id="clip0_56622_3991">
<rect width="20" height="20" fill="white" transform="translate(0 0.5)"/>
</clipPath>
</defs>
</svg>
