<svg width="20" height="20" viewBox="0 0 20 20" fill="none" xmlns="http://www.w3.org/2000/svg">
<path d="M19.9166 9.66667C19.7499 9.33333 16.2499 2.5 9.99992 2.5C3.74992 2.5 0.249919 9.33333 0.083252 9.66667C-8.13785e-05 9.91667 -8.13785e-05 10.1667 0.083252 10.4167C0.249919 10.6667 3.74992 17.5 9.99992 17.5C16.2499 17.5 19.7499 10.6667 19.9166 10.3333C19.9999 10.1667 19.9999 9.83333 19.9166 9.66667ZM9.99992 15.8333C5.49992 15.8333 2.58325 11.3333 1.74992 10C2.49992 8.66667 5.49992 4.16667 9.99992 4.16667C14.4999 4.16667 17.4166 8.66667 18.2499 10C17.4166 11.3333 14.4999 15.8333 9.99992 15.8333Z" fill="#BABABA"/>
<path d="M9.99984 6.66699C8.1665 6.66699 6.6665 8.16699 6.6665 10.0003C6.6665 11.8337 8.1665 13.3337 9.99984 13.3337C11.8332 13.3337 13.3332 11.8337 13.3332 10.0003C13.3332 8.16699 11.8332 6.66699 9.99984 6.66699ZM9.99984 11.667C9.08317 11.667 8.33317 10.917 8.33317 10.0003C8.33317 9.08366 9.08317 8.33366 9.99984 8.33366C10.9165 8.33366 11.6665 9.08366 11.6665 10.0003C11.6665 10.917 10.9165 11.667 9.99984 11.667Z" fill="#BABABA"/>
</svg>
