<svg width="46" height="42" viewBox="0 0 46 42" fill="none" xmlns="http://www.w3.org/2000/svg">
<g id="Group_675">
<path id="Polygon_7" d="M20.4339 1.89983C21.31 0.448922 23.0624 -0.00925964 24.4497 0.83074C24.8878 1.05983 25.2529 1.44165 25.472 1.89983L45.1862 37.4089C45.9894 38.8598 45.5513 40.7689 44.164 41.6089C43.7259 41.9144 43.2148 41.9907 42.7037 41.9907H3.27513C1.66878 41.9907 0.354492 40.6162 0.354492 38.9362C0.354492 38.4016 0.500524 37.8671 0.719572 37.4089L20.4339 1.89983Z" fill="#FFAD4E"/>
<path id="Rectangle_276" d="M22.9893 10.2998C24.2306 10.2998 25.1798 11.2925 25.1798 12.5907V25.1907C25.1798 26.4889 24.2306 27.4816 22.9893 27.4816C21.748 27.4816 20.7988 26.4889 20.7988 25.1907V12.5907C20.7988 11.3689 21.748 10.2998 22.9893 10.2998Z" fill="white"/>
<path id="Ellipse_82" d="M22.9895 36.6452C24.6025 36.6452 25.9101 35.2777 25.9101 33.5907C25.9101 31.9037 24.6025 30.5361 22.9895 30.5361C21.3765 30.5361 20.0688 31.9037 20.0688 33.5907C20.0688 35.2777 21.3765 36.6452 22.9895 36.6452Z" fill="white"/>
</g>
</svg>
