<svg width="14" height="15" viewBox="0 0 14 15" fill="none" xmlns="http://www.w3.org/2000/svg">
<g clip-path="url(#clip0_1_1933)">
<path d="M12.8333 6.96334V7.5C12.8326 8.75792 12.4253 9.9819 11.6721 10.9894C10.9189 11.9969 9.86021 12.7339 8.65392 13.0906C7.44763 13.4473 6.15836 13.4044 4.9784 12.9685C3.79844 12.5326 2.79101 11.7269 2.10635 10.6716C1.4217 9.61636 1.0965 8.36804 1.17927 7.11285C1.26204 5.85767 1.74833 4.66286 2.56562 3.70663C3.38292 2.7504 4.48742 2.08398 5.7144 1.80675C6.94139 1.52953 8.22512 1.65637 9.37413 2.16834" stroke="#0FA456" stroke-width="1.5" stroke-linecap="round" stroke-linejoin="round"/>
<path d="M12.8333 2.83334L7 8.67251L5.25 6.92251" stroke="#0FA456" stroke-width="1.5" stroke-linecap="round" stroke-linejoin="round"/>
</g>
<defs>
<clipPath id="clip0_1_1933">
<rect width="14" height="14" fill="white" transform="translate(0 0.5)"/>
</clipPath>
</defs>
</svg>
